<?xml version="1.0" standalone="no"?>
<!DOCTYPE svg PUBLIC "-//W3C//DTD SVG 20010904//EN"
 "http://www.w3.org/TR/2001/REC-SVG-20010904/DTD/svg10.dtd">
<svg version="1.0" xmlns="http://www.w3.org/2000/svg"
 width="1024.000000pt" height="1024.000000pt" viewBox="0 0 1024.000000 1024.000000"
 preserveAspectRatio="xMidYMid meet">
<metadata>
Created by potrace 1.14, written by Peter Selinger 2001-2017
</metadata>
<g transform="translate(0.000000,1024.000000) scale(0.100000,-0.100000)"
fill="#000000" stroke="none">
<path d="M4975 10224 c-33 -8 -73 -22 -90 -31 -16 -9 -31 -16 -33 -14 -8 7
-117 -64 -166 -110 -47 -43 -140 -167 -141 -188 -1 -3 -6 -15 -12 -26 -24 -45
-41 -113 -49 -194 -2 -30 -6 -57 -8 -58 -2 -2 0 -19 4 -37 4 -19 4 -40 0 -47
-5 -7 -5 -22 -1 -33 4 -12 5 -32 1 -46 -4 -14 -3 -34 1 -46 4 -11 4 -26 -1
-33 -4 -7 -4 -29 0 -48 8 -34 8 -35 -21 -31 -16 3 -29 2 -29 -1 0 -3 -16 -6
-35 -6 -19 0 -35 2 -35 5 0 7 -70 4 -77 -4 -3 -3 -14 -1 -24 4 -12 7 -20 7
-24 0 -4 -7 -12 -7 -24 0 -10 5 -21 7 -24 4 -3 -3 -36 -7 -74 -9 -77 -3 -157
-21 -190 -42 -12 -8 -26 -14 -30 -14 -19 1 -114 -61 -166 -109 -47 -43 -141
-168 -142 -189 -1 -3 -9 -21 -18 -38 -10 -18 -15 -33 -11 -33 4 0 1 -6 -5 -14
-6 -8 -11 -18 -10 -22 1 -5 0 -11 -1 -14 -14 -37 -21 -244 -10 -276 5 -11 11
-37 14 -57 10 -63 87 -195 155 -268 35 -38 70 -69 78 -69 7 0 13 -4 13 -9 0
-9 135 -81 164 -88 6 -1 36 -9 66 -16 50 -13 212 -21 315 -17 22 1 47 2 55 1
8 -1 32 -1 52 -1 20 1 39 -4 43 -10 3 -5 2 -10 -3 -10 -5 0 -6 -17 -2 -40 4
-22 4 -40 0 -40 -4 0 -4 -18 0 -39 4 -22 4 -45 0 -52 -4 -6 -4 -24 0 -40 5
-15 5 -30 2 -33 -7 -8 -5 -113 3 -126 3 -6 2 -10 -3 -10 -5 0 -6 -17 -2 -40 4
-22 4 -40 0 -40 -4 0 -4 -15 0 -34 4 -19 4 -39 0 -46 -4 -7 -4 -26 -1 -44 4
-17 4 -46 0 -63 -3 -18 -3 -33 1 -33 4 0 4 -16 0 -35 -4 -19 -4 -37 0 -40 4
-3 4 -20 0 -39 -4 -18 -3 -40 1 -49 6 -9 5 -18 0 -21 -6 -4 -6 -18 -1 -35 4
-15 4 -35 -1 -42 -6 -9 -9 -10 -9 -2 0 8 -9 9 -30 3 -18 -5 -30 -5 -30 0 0 6
-10 6 -25 0 -14 -5 -25 -6 -25 -1 0 5 -16 5 -35 1 -19 -4 -35 -5 -35 -1 0 3
-25 6 -55 6 -30 0 -55 -3 -55 -7 0 -4 -11 -3 -25 2 -16 6 -25 6 -25 0 0 -6 -9
-6 -23 -1 -14 5 -30 5 -40 0 -9 -6 -17 -6 -17 -2 0 4 -25 8 -55 8 -30 0 -55
-3 -55 -7 0 -4 -11 -3 -25 2 -16 6 -25 6 -25 0 0 -6 -9 -6 -23 -1 -14 5 -30 5
-40 0 -9 -6 -17 -6 -17 -2 0 4 -25 8 -55 8 -30 0 -55 -3 -55 -7 0 -4 -11 -3
-25 2 -16 6 -25 6 -25 0 0 -6 -9 -6 -23 -1 -14 5 -30 5 -40 0 -9 -6 -17 -6
-17 -2 0 4 -25 8 -55 8 -30 0 -55 -3 -55 -7 0 -4 -11 -3 -25 2 -17 6 -25 6
-25 -1 0 -6 -4 -7 -10 -4 -15 9 -80 12 -80 3 0 -4 -11 -3 -25 2 -15 6 -26 6
-30 0 -4 -6 -13 -7 -23 -2 -17 9 -70 7 -79 -2 -3 -3 -15 -1 -28 4 -14 5 -26 5
-33 -2 -6 -6 -12 -6 -16 1 -5 8 -13 8 -27 1 -12 -7 -19 -7 -19 -1 0 7 -8 7
-22 2 -13 -5 -32 -5 -43 -1 -11 4 -25 3 -32 -2 -7 -5 -14 -5 -18 2 -4 7 -12 7
-26 0 -12 -7 -19 -7 -19 -1 0 7 -8 7 -22 2 -13 -5 -32 -5 -43 -1 -11 4 -25 3
-32 -2 -7 -5 -14 -5 -18 2 -4 7 -12 7 -26 0 -12 -7 -19 -7 -19 -1 0 7 -8 7
-22 2 -13 -5 -32 -5 -43 -1 -11 4 -25 3 -32 -2 -7 -5 -14 -5 -18 2 -4 7 -12 7
-26 0 -12 -7 -19 -7 -19 -1 0 7 -8 7 -22 2 -13 -5 -32 -5 -43 -1 -11 4 -25 3
-32 -2 -7 -5 -14 -5 -18 2 -4 7 -12 7 -26 0 -12 -7 -19 -7 -19 -1 0 7 -8 7
-22 2 -13 -5 -32 -5 -43 -1 -11 4 -25 3 -32 -2 -7 -5 -14 -5 -18 2 -4 7 -12 7
-26 0 -12 -7 -19 -7 -19 -1 0 7 -8 7 -22 2 -13 -5 -32 -5 -43 -1 -11 4 -25 3
-32 -2 -7 -5 -14 -5 -18 2 -4 7 -12 7 -26 0 -12 -7 -19 -7 -19 -1 0 7 -8 7
-23 2 -12 -5 -31 -5 -42 -1 -11 4 -25 3 -32 -2 -7 -5 -14 -5 -18 2 -4 7 -12 7
-26 0 -12 -7 -25 -7 -37 -1 -11 6 -24 6 -35 0 -11 -7 -17 -7 -17 0 0 7 -8 7
-25 1 -14 -5 -25 -6 -25 -1 0 5 -16 5 -35 1 -19 -4 -35 -5 -35 -1 0 3 -25 6
-55 6 -30 0 -55 -3 -55 -7 0 -4 -11 -3 -25 2 -16 6 -25 6 -25 0 0 -6 -9 -6
-23 -1 -14 5 -30 5 -40 0 -11 -7 -17 -6 -17 0 0 6 -11 6 -30 1 -19 -5 -30 -5
-30 1 0 6 -5 7 -11 3 -6 -3 -34 -8 -62 -10 -29 -2 -59 -5 -67 -7 -51 -12 -77
-19 -90 -24 -8 -3 -20 -7 -27 -9 -7 -1 -27 -9 -44 -18 -18 -9 -36 -16 -40 -16
-8 0 -47 -24 -117 -72 -40 -27 -172 -155 -166 -161 2 -2 -5 -12 -16 -22 -11
-10 -20 -24 -20 -32 0 -7 -4 -13 -9 -13 -7 0 -72 -130 -77 -155 -1 -5 -10 -37
-19 -70 -20 -71 -28 -263 -13 -326 5 -24 11 -53 12 -64 2 -11 7 -29 11 -40 60
-152 111 -277 125 -305 10 -19 18 -38 19 -43 0 -4 9 -28 21 -53 11 -26 20 -49
20 -51 0 -3 6 -19 14 -36 8 -18 29 -68 47 -112 17 -44 36 -84 40 -89 5 -6 9
-16 9 -23 0 -7 13 -40 29 -73 16 -33 28 -60 26 -60 -4 0 29 -80 60 -145 8 -16
28 -66 46 -110 17 -44 39 -98 49 -120 10 -22 34 -80 54 -130 20 -49 43 -102
51 -117 8 -14 15 -36 15 -47 0 -12 5 -21 10 -21 6 0 9 -3 8 -7 -1 -5 4 -20 10
-35 20 -47 33 -83 32 -86 0 -1 6 -15 14 -30 18 -34 37 -78 72 -167 15 -38 31
-74 35 -79 5 -6 9 -18 9 -28 0 -10 5 -18 10 -18 6 0 9 -3 9 -7 -1 -5 0 -11 1
-15 1 -5 3 -11 4 -15 1 -5 12 -30 24 -57 12 -27 22 -50 22 -53 0 -2 7 -20 17
-41 9 -20 17 -39 18 -42 6 -18 68 -167 80 -195 8 -16 30 -70 50 -120 21 -49
43 -105 51 -122 8 -18 20 -48 28 -65 8 -18 24 -58 36 -88 12 -30 27 -68 35
-85 7 -16 20 -46 28 -65 9 -19 32 -75 52 -125 57 -138 80 -193 114 -275 18
-41 33 -80 35 -86 1 -7 6 -18 12 -25 5 -8 16 -32 23 -54 13 -38 24 -65 71
-170 11 -25 20 -49 20 -54 0 -17 35 -23 120 -20 8 0 33 0 55 0 22 0 49 0 60 0
11 0 53 -1 94 -1 40 0 77 3 82 6 5 3 9 1 9 -4 0 -4 23 -6 50 -2 28 4 53 4 54
1 2 -3 54 -4 115 -1 61 3 111 3 111 0 0 -3 27 -3 60 0 33 3 60 3 60 0 0 -3 51
-4 112 -3 62 1 138 2 168 3 88 1 212 1 250 -1 19 0 41 -1 48 0 19 2 39 2 146
1 54 0 102 3 107 6 5 3 9 1 9 -3 0 -5 27 -6 60 -3 33 3 60 3 60 0 0 -3 50 -3
111 0 61 3 115 2 120 -1 6 -3 30 -3 54 1 24 4 48 4 54 1 5 -3 46 -4 90 -1 45
3 81 2 81 -1 0 -3 23 -3 50 1 28 4 53 4 54 1 2 -3 54 -4 115 -1 61 3 111 3
111 0 0 -3 27 -3 60 0 33 3 60 3 60 0 0 -3 37 -3 83 0 46 3 103 2 126 -1 23
-3 44 -3 46 1 2 4 27 4 55 0 27 -4 52 -4 55 -2 2 2 35 4 72 3 113 -2 192 -2
315 -1 65 1 122 -1 127 -4 5 -4 12 -3 15 2 3 5 28 6 56 2 27 -4 52 -4 55 -2 2
2 35 4 72 3 113 -2 192 -2 315 -1 65 1 122 -1 127 -4 5 -4 12 -3 15 2 3 5 28
6 56 2 27 -4 52 -4 55 -2 2 2 35 4 72 3 113 -2 192 -2 315 -1 65 1 122 -1 127
-4 5 -4 12 -3 15 2 3 5 28 6 56 2 27 -4 52 -4 55 -2 2 2 35 4 72 3 187 -3 505
-1 514 4 5 4 9 3 9 -2 0 -4 20 -7 44 -5 48 4 67 19 84 67 6 17 38 95 72 175
33 80 62 150 63 155 1 6 4 12 7 15 5 5 25 54 44 108 6 17 14 32 18 32 5 0 8 7
8 16 0 8 8 34 19 57 22 48 85 200 87 207 1 7 19 50 42 103 22 48 30 70 29 77
-1 3 6 19 16 35 9 17 28 59 42 95 14 36 30 74 35 85 37 82 50 116 50 129 0 9
5 16 10 16 6 0 10 7 10 15 0 8 11 38 24 67 13 29 50 116 81 193 32 77 61 142
66 143 5 2 7 8 4 13 -3 5 0 19 7 31 7 13 13 25 13 28 2 8 25 64 35 85 9 20 42
95 45 105 4 12 20 51 54 130 20 47 36 87 36 90 1 3 9 23 19 45 10 22 19 45 20
50 1 6 13 33 25 60 12 28 32 70 43 95 11 25 21 52 23 60 2 8 14 38 26 65 13
28 24 52 24 55 1 3 8 19 15 35 7 17 15 39 17 49 2 11 9 26 15 34 7 8 13 19 14
26 1 6 8 25 15 41 7 17 13 32 13 35 1 3 4 10 8 15 3 6 38 89 78 185 40 96 78
190 86 207 22 51 37 87 99 238 31 77 61 149 65 160 11 25 27 80 36 120 12 54
11 255 -1 308 -18 77 -57 197 -64 197 -3 0 -13 15 -20 33 -30 68 -133 189
-216 253 -117 90 -264 146 -423 160 -23 2 -47 6 -52 9 -6 4 -10 1 -10 -5 0 -7
-6 -8 -18 -1 -11 6 -24 6 -34 0 -11 -6 -19 -6 -23 1 -4 7 -12 7 -24 0 -10 -5
-21 -7 -25 -3 -9 9 -116 9 -116 0 0 -4 -8 -3 -18 2 -11 6 -24 6 -34 0 -11 -6
-19 -6 -23 1 -4 7 -12 7 -25 0 -12 -6 -21 -7 -25 0 -4 6 -15 6 -30 0 -16 -6
-25 -6 -25 0 0 6 -9 6 -25 0 -16 -6 -25 -6 -25 0 0 6 -10 6 -26 0 -14 -6 -23
-7 -21 -2 6 8 -45 8 -59 -1 -6 -3 -16 -2 -24 3 -8 5 -21 5 -31 -1 -11 -6 -20
-5 -24 1 -4 6 -15 6 -30 0 -16 -6 -25 -6 -25 0 0 6 -10 6 -26 0 -14 -6 -23 -7
-21 -2 6 8 -45 8 -59 -1 -6 -3 -16 -2 -24 3 -8 5 -21 5 -31 -1 -11 -6 -20 -5
-24 1 -4 6 -15 6 -30 0 -16 -6 -25 -6 -25 0 0 6 -10 6 -26 0 -14 -6 -23 -7
-21 -2 3 4 -8 7 -24 7 -16 0 -29 -3 -29 -7 0 -4 -11 -4 -23 1 -13 5 -30 5 -37
1 -8 -5 -21 -5 -30 0 -9 5 -22 5 -30 0 -8 -5 -21 -5 -31 1 -11 6 -20 5 -24 -1
-4 -6 -12 -7 -23 -1 -9 5 -26 5 -39 0 -13 -5 -23 -5 -23 -1 0 4 -11 7 -25 7
-14 0 -25 -3 -25 -7 0 -4 -11 -3 -25 2 -15 6 -27 6 -30 0 -3 -5 -12 -7 -19 -4
-22 9 -97 10 -102 2 -3 -5 -13 -4 -22 1 -11 6 -24 6 -34 0 -10 -6 -19 -6 -23
0 -4 7 -15 7 -30 1 -16 -6 -25 -6 -25 0 0 6 -10 6 -26 0 -14 -6 -23 -7 -21 -2
6 8 -45 8 -59 -1 -6 -3 -16 -2 -24 3 -8 5 -21 5 -30 0 -9 -5 -22 -5 -30 0 -8
5 -21 5 -31 -1 -11 -6 -20 -5 -24 1 -4 7 -12 7 -24 0 -10 -5 -21 -7 -25 -3 -9
9 -116 9 -116 0 0 -4 -8 -3 -18 2 -11 6 -24 6 -34 0 -11 -6 -19 -6 -23 1 -4 7
-12 7 -25 0 -10 -6 -21 -7 -23 -3 -6 9 -59 9 -73 0 -6 -3 -16 -2 -24 3 -9 5
-19 5 -26 -1 -8 -6 -14 -7 -18 0 -4 6 -18 6 -35 1 -15 -4 -34 -4 -42 0 -7 5
-20 5 -29 0 -9 -5 -22 -5 -30 0 -8 5 -19 5 -25 0 -6 -5 -17 -5 -25 0 -7 4 -24
4 -37 -1 -12 -5 -23 -5 -23 -1 0 4 -11 7 -25 7 -14 0 -25 -3 -25 -7 0 -4 -11
-3 -25 2 -15 6 -27 6 -30 0 -3 -5 -12 -7 -19 -4 -23 9 -97 10 -102 2 -3 -5
-13 -4 -22 1 -10 6 -23 6 -34 0 -10 -6 -19 -5 -23 1 -4 7 -12 7 -25 0 -11 -6
-21 -6 -24 -1 -6 10 -31 9 -41 -1 -3 -3 -16 -3 -29 -1 -18 4 -23 12 -24 39 -1
19 -4 39 -7 44 -4 6 -3 10 2 10 8 0 7 104 -1 127 -3 7 -1 15 3 17 5 3 5 24 1
46 -4 22 -4 43 1 45 4 3 4 19 -1 35 -5 16 -5 32 0 35 4 3 4 21 0 40 -4 19 -4
37 0 40 4 2 4 23 0 45 -4 22 -4 43 1 45 4 3 4 19 -1 35 -5 16 -5 32 0 35 4 3
4 21 0 40 -4 19 -4 37 0 40 4 2 4 23 0 45 -4 22 -4 43 1 45 4 3 4 19 -1 35 -5
16 -5 32 0 35 4 3 4 21 0 40 -4 19 -5 37 -1 39 10 7 120 10 126 5 3 -3 27 -3
55 1 27 3 54 4 59 0 6 -3 39 -3 75 0 40 3 66 2 66 -4 0 -6 5 -5 12 2 7 7 22
12 34 12 12 0 49 9 83 20 199 63 357 221 420 417 16 50 31 134 33 178 1 20
-19 180 -22 180 -1 0 -3 8 -5 17 -6 32 -85 188 -95 188 -6 0 -10 6 -10 13 0
32 -216 207 -234 190 -3 -4 -6 0 -6 7 0 7 -3 10 -7 7 -3 -4 -12 -2 -20 4 -7 6
-13 8 -13 4 0 -4 -6 -3 -12 3 -19 15 -91 32 -161 38 -34 2 -67 7 -74 9 -7 2
-15 0 -18 -5 -4 -6 -13 -7 -24 -1 -10 6 -23 6 -31 1 -8 -5 -19 -6 -24 -3 -9 6
-136 8 -161 3 -25 -5 -47 1 -42 13 2 6 1 21 -3 32 -4 11 -4 29 0 40 4 11 4 29
0 40 -4 11 -4 29 0 40 4 11 4 31 0 45 -4 14 -3 37 1 52 4 14 5 29 2 31 -2 3
-7 38 -9 79 -8 115 -9 118 -16 118 -5 0 -8 11 -8 25 0 14 -5 25 -12 25 -6 0
-8 3 -5 6 8 8 -62 144 -74 144 -5 0 -9 6 -9 13 0 17 -94 107 -157 151 -29 20
-55 36 -57 36 -2 0 -21 8 -42 17 -22 9 -42 18 -46 19 -5 1 -9 2 -10 4 -2 1
-10 3 -18 5 -8 2 -28 6 -45 10 -57 14 -219 13 -280 -1z"/>
<path d="M2245 1597 c-10 -5 -210 -202 -445 -437 -474 -475 -486 -489 -515
-642 -2 -10 -7 -23 -10 -28 -3 -6 -3 -10 2 -10 4 0 8 -21 7 -47 0 -27 5 -67
12 -91 6 -23 10 -42 8 -42 -2 0 8 -23 23 -50 15 -28 31 -50 35 -50 4 0 8 -6 8
-13 0 -15 57 -71 110 -108 36 -25 60 -37 120 -60 29 -12 615 -14 3510 -14
1911 0 3486 3 3500 6 117 28 235 119 294 224 31 56 60 164 56 210 -10 127 -22
165 -81 264 -8 13 -209 220 -448 459 -372 373 -437 433 -457 429 -14 -2 -27
-1 -30 4 -2 5 -15 4 -28 -1 -12 -4 -29 -5 -36 0 -7 5 -23 5 -34 0 -12 -4 -30
-4 -41 0 -11 4 -27 4 -36 -1 -9 -5 -19 -6 -22 -3 -7 7 -105 9 -112 2 -4 -3
-20 -2 -36 2 -16 5 -31 5 -34 0 -3 -4 -21 -4 -40 0 -19 4 -37 4 -40 0 -3 -5
-18 -5 -34 0 -16 4 -32 6 -35 2 -8 -7 -113 -5 -126 3 -6 3 -10 2 -10 -4 0 -6
-11 -6 -30 -1 -17 5 -30 5 -30 0 0 -5 -13 -5 -30 0 -17 5 -30 5 -30 0 0 -5
-13 -5 -30 0 -17 5 -30 5 -30 0 0 -5 -13 -5 -30 0 -17 5 -30 5 -30 0 0 -5 -13
-5 -30 0 -17 5 -30 5 -30 0 0 -5 -13 -5 -30 0 -17 5 -30 5 -30 0 0 -5 -13 -5
-30 0 -17 5 -30 5 -30 0 0 -5 -13 -5 -30 0 -19 5 -30 5 -30 -1 0 -6 -4 -7 -10
-4 -13 8 -108 11 -115 3 -4 -3 -20 -2 -36 2 -16 5 -31 5 -34 0 -3 -4 -21 -4
-40 0 -19 4 -37 4 -40 0 -3 -5 -19 -5 -35 0 -16 5 -32 5 -35 1 -2 -4 -25 -5
-50 -1 -25 4 -48 3 -50 -1 -3 -4 -19 -4 -35 1 -16 5 -32 5 -35 0 -3 -4 -21 -4
-40 0 -19 4 -37 4 -40 0 -3 -5 -18 -5 -34 0 -16 4 -32 6 -35 2 -8 -7 -113 -5
-126 3 -6 3 -10 2 -10 -4 0 -6 -11 -6 -30 -1 -17 5 -30 5 -30 0 0 -5 -13 -5
-30 0 -17 5 -30 5 -30 0 0 -5 -13 -5 -30 0 -17 5 -30 5 -30 0 0 -5 -13 -5 -30
0 -17 5 -30 5 -30 0 0 -5 -13 -5 -30 0 -17 5 -30 5 -30 0 0 -5 -13 -5 -30 0
-17 5 -30 5 -30 0 0 -5 -13 -5 -30 0 -17 5 -30 5 -30 0 0 -5 -13 -5 -30 0 -19
5 -30 5 -30 -1 0 -6 -4 -7 -10 -4 -13 8 -108 11 -115 3 -4 -3 -20 -2 -36 2
-16 5 -31 5 -34 0 -3 -4 -21 -4 -40 0 -19 4 -37 4 -40 0 -3 -5 -18 -5 -34 0
-16 4 -32 6 -35 3 -7 -8 -116 -7 -123 1 -3 3 -13 1 -22 -4 -10 -5 -23 -5 -31
0 -8 5 -21 5 -30 0 -9 -5 -22 -5 -30 0 -7 4 -24 4 -36 0 -14 -6 -26 -5 -29 0
-3 5 -18 5 -35 0 -17 -5 -30 -5 -30 0 0 5 -13 5 -30 0 -17 -5 -30 -5 -30 0 0
5 -13 5 -30 0 -16 -5 -30 -6 -30 -2 0 4 -29 7 -65 7 -36 0 -65 -3 -65 -7 0 -3
-12 -3 -27 1 -16 4 -44 4 -65 1 -20 -4 -42 -4 -49 1 -7 4 -20 4 -29 -1 -9 -5
-22 -5 -30 0 -8 5 -21 5 -30 0 -9 -5 -22 -5 -30 0 -7 4 -24 4 -36 0 -14 -6
-26 -5 -29 0 -3 5 -18 5 -35 0 -17 -5 -30 -5 -30 0 0 5 -13 5 -30 0 -17 -5
-30 -5 -30 0 0 5 -13 5 -30 0 -16 -5 -30 -6 -30 -2 0 4 -29 7 -65 7 -36 0 -65
-3 -65 -7 0 -4 -12 -3 -27 1 -16 4 -39 5 -53 1 -14 -4 -37 -3 -52 1 -16 4 -28
4 -28 -1 0 -4 -15 -5 -32 -1 -18 4 -48 4 -65 0 -18 -3 -33 -3 -33 2 0 4 -13 4
-30 -1 -17 -5 -30 -5 -30 0 0 5 -13 5 -30 0 -17 -5 -30 -5 -30 0 0 5 -13 5
-29 0 -15 -4 -34 -4 -42 0 -7 5 -20 5 -29 0 -9 -5 -22 -5 -30 0 -8 5 -21 5
-30 0 -9 -5 -22 -5 -30 0 -8 5 -21 5 -31 0 -9 -5 -19 -7 -22 -4 -8 8 -106 9
-113 1 -3 -3 -19 -1 -35 3 -16 5 -31 5 -34 0 -3 -4 -21 -4 -40 0 -19 4 -37 4
-40 0 -3 -5 -18 -5 -34 0 -16 4 -32 6 -35 2 -8 -7 -113 -5 -126 3 -6 3 -10 2
-10 -4 0 -6 -11 -6 -30 -1 -17 5 -30 5 -30 0 0 -5 -13 -5 -30 0 -17 5 -30 5
-30 0 0 -5 -13 -5 -30 0 -17 5 -30 5 -30 0 0 -5 -13 -5 -30 0 -17 5 -30 5 -30
0 0 -5 -13 -5 -30 0 -17 5 -30 5 -30 0 0 -5 -13 -5 -30 0 -17 5 -30 5 -30 0 0
-5 -13 -5 -30 0 -17 5 -30 5 -30 0 0 -5 -13 -5 -30 0 -17 5 -30 5 -30 0 0 -5
-13 -5 -28 0 -17 4 -36 3 -47 -3z"/>
</g>
</svg>
